<svg width="22" height="18" viewBox="0 0 22 18" fill="none" xmlns="http://www.w3.org/2000/svg">
<path fill-rule="evenodd" clip-rule="evenodd" d="M1.24996 2.50001C1.84827 2.50001 2.33329 2.01499 2.33329 1.41668C2.33329 0.818368 1.84827 0.333344 1.24996 0.333344C0.651651 0.333344 0.166626 0.818368 0.166626 1.41668C0.166626 2.01499 0.651651 2.50001 1.24996 2.50001ZM20.75 2.50001C21.3483 2.50001 21.8333 2.01499 21.8333 1.41668C21.8333 0.818368 21.3483 0.333344 20.75 0.333344H5.58329C4.98498 0.333344 4.49996 0.818366 4.49996 1.41667C4.49996 2.01498 4.98498 2.50001 5.58329 2.50001L20.75 2.50001ZM20.75 10.0833C21.3483 10.0833 21.8333 9.59832 21.8333 9.00001C21.8333 8.4017 21.3483 7.91668 20.75 7.91668L5.58329 7.91667C4.98498 7.91667 4.49996 8.4017 4.49996 9.00001C4.49996 9.59832 4.98498 10.0833 5.58329 10.0833L20.75 10.0833ZM21.8333 16.5833C21.8333 17.1817 21.3483 17.6667 20.75 17.6667L5.58329 17.6667C4.98498 17.6667 4.49996 17.1816 4.49996 16.5833C4.49996 15.985 4.98498 15.5 5.58329 15.5L20.75 15.5C21.3483 15.5 21.8333 15.985 21.8333 16.5833ZM2.33329 9.00001C2.33329 9.59832 1.84827 10.0833 1.24996 10.0833C0.651651 10.0833 0.166626 9.59832 0.166626 9.00001C0.166626 8.4017 0.651651 7.91668 1.24996 7.91668C1.84827 7.91668 2.33329 8.4017 2.33329 9.00001ZM1.24996 17.6667C1.84827 17.6667 2.33329 17.1817 2.33329 16.5833C2.33329 15.985 1.84827 15.5 1.24996 15.5C0.651651 15.5 0.166626 15.985 0.166626 16.5833C0.166626 17.1817 0.651651 17.6667 1.24996 17.6667Z" fill="#5C5C5C"/>
</svg>
