<svg width="16" height="16" viewBox="0 0 16 16" fill="none" xmlns="http://www.w3.org/2000/svg">
<path fill-rule="evenodd" clip-rule="evenodd" d="M10.8007 7.01301C11.115 7.29248 11.5778 7.24152 11.8344 6.89917C12.091 6.55683 12.0442 6.05275 11.7299 5.77327L9.0841 3.42076C8.45314 2.85975 7.54686 2.85975 6.9159 3.42076L4.2701 5.77327C3.95578 6.05275 3.90899 6.55683 4.16559 6.89917C4.42218 7.24152 4.88501 7.29248 5.19932 7.01301L7.84513 4.6605C7.93527 4.58035 8.06473 4.58035 8.15487 4.6605L10.8007 7.01301ZM10.8007 12.8196C11.115 13.0991 11.5778 13.0482 11.8344 12.7058C12.091 12.3635 12.0442 11.8594 11.7299 11.5799L9.0841 9.2274C8.45314 8.66639 7.54686 8.66639 6.9159 9.2274L4.2701 11.5799C3.95578 11.8594 3.90899 12.3635 4.16559 12.7058C4.42218 13.0482 4.88501 13.0991 5.19932 12.8196L7.84513 10.4671C7.93527 10.387 8.06473 10.387 8.15487 10.4671L10.8007 12.8196Z" fill="#FF3030"/>
</svg>
