<svg width="21" height="20" viewBox="0 0 21 20" fill="none" xmlns="http://www.w3.org/2000/svg">
<path fill-rule="evenodd" clip-rule="evenodd" d="M2.75 10C2.75 5.58172 6.33172 2 10.75 2C15.1683 2 18.75 5.58172 18.75 10C18.75 14.4183 15.1683 18 10.75 18C6.33172 18 2.75 14.4183 2.75 10ZM10.75 0C5.22715 0 0.75 4.47715 0.75 10C0.75 15.5228 5.22715 20 10.75 20C16.2728 20 20.75 15.5228 20.75 10C20.75 4.47715 16.2728 0 10.75 0ZM10.75 4.49969C11.3023 4.49969 11.75 4.94741 11.75 5.49969V11.4678C11.75 12.02 11.3023 12.4678 10.75 12.4678C10.1977 12.4678 9.75 12.02 9.75 11.4678V5.49969C9.75 4.94741 10.1977 4.49969 10.75 4.49969ZM11.75 14.501C11.75 15.0529 11.3023 15.5003 10.75 15.5003C10.1977 15.5003 9.75 15.0529 9.75 14.501C9.75 13.9491 10.1977 13.5017 10.75 13.5017C11.3023 13.5017 11.75 13.9491 11.75 14.501Z" fill="#3AC922"/>
</svg>
