<svg width="24" height="24" viewBox="0 0 24 24" fill="none" xmlns="http://www.w3.org/2000/svg">
<path fill-rule="evenodd" clip-rule="evenodd" d="M4 15.9242C4 15.3642 4.44697 14.9102 4.99834 14.9102C5.5497 14.9102 5.99668 15.3642 5.99668 15.9242V17.972L18.0033 17.972V15.9242C18.0033 15.3642 18.4503 14.9102 19.0017 14.9102C19.553 14.9102 20 15.3642 20 15.9242V17.972C20 19.092 19.1061 20 18.0033 20H5.99668C4.89394 20 4 19.092 4 17.972V15.9242ZM8.67533 10.6483L10.9644 12.9733V5.01401C10.9644 4.45399 11.4114 4 11.9628 4C12.5141 4 12.9611 4.45399 12.9611 5.01401L12.9611 12.9733L15.2502 10.6483C15.64 10.2523 16.2722 10.2523 16.662 10.6483C17.0519 11.0443 17.0519 11.6864 16.662 12.0824L13.3746 15.4214C12.5949 16.2134 11.3306 16.2134 10.5509 15.4214L7.26347 12.0824C6.87359 11.6864 6.87359 11.0443 7.26347 10.6483C7.65335 10.2523 8.28546 10.2523 8.67533 10.6483Z" fill="#2D5BFF"/>
</svg>
