<svg width="20" height="20" viewBox="0 0 20 20" fill="none" xmlns="http://www.w3.org/2000/svg">
<path fill-rule="evenodd" clip-rule="evenodd" d="M9.66158 6.26263C9.37407 5.90325 9.43234 5.37884 9.79173 5.09133C10.1511 4.80382 10.6755 4.86209 10.963 5.22148L13.8799 8.86756C14.3669 9.47626 14.3669 10.3412 13.8799 10.9499L10.963 14.596C10.6755 14.9554 10.1511 15.0136 9.79173 14.7261C9.43234 14.4386 9.37407 13.9142 9.66158 13.5548L12.5785 9.90872L9.66158 6.26263ZM4.66158 6.26263C4.37407 5.90325 4.43234 5.37884 4.79173 5.09133C5.15111 4.80382 5.67552 4.86209 5.96303 5.22148L8.8799 8.86756C9.36686 9.47626 9.36686 10.3412 8.8799 10.9499L5.96303 14.596C5.67552 14.9554 5.15111 15.0136 4.79173 14.7261C4.43234 14.4386 4.37407 13.9142 4.66158 13.5548L7.57845 9.90872L4.66158 6.26263Z" fill="#2D5BFF"/>
</svg>
