<svg width="15" height="16" viewBox="0 0 15 16" fill="none" xmlns="http://www.w3.org/2000/svg">
<g clip-path="url(#clip0_239_1573)">
<path d="M6.53333 1.0125C7.08571 1.10312 7.46031 1.61875 7.36825 2.1625L7.05714 4H10.0762L10.4413 1.83437C10.5333 1.29062 11.0571 0.921872 11.6095 1.0125C12.1619 1.10312 12.5365 1.61875 12.4444 2.1625L12.1365 4H13.9841C14.546 4 15 4.44687 15 5C15 5.55312 14.546 6 13.9841 6H11.7968L11.1206 10H12.9682C13.5302 10 13.9841 10.4469 13.9841 11C13.9841 11.5531 13.5302 12 12.9682 12H10.7809L10.4159 14.1656C10.3238 14.7094 9.79999 15.0781 9.24761 14.9875C8.69523 14.8969 8.32063 14.3812 8.41269 13.8375L8.7238 12.0031H5.70158L5.3365 14.1687C5.24444 14.7125 4.72063 15.0812 4.16825 14.9906C3.61587 14.9 3.24126 14.3844 3.33333 13.8406L3.64126 12H1.79364C1.23174 12 0.777771 11.5531 0.777771 11C0.777771 10.4469 1.23174 10 1.79364 10H3.98095L4.65714 6H2.80952C2.24761 6 1.79364 5.55312 1.79364 5C1.79364 4.44687 2.24761 4 2.80952 4H4.99682L5.3619 1.83437C5.45396 1.29062 5.97777 0.921872 6.53015 1.0125H6.53333ZM6.71745 6L6.04126 10H9.06031L9.7365 6H6.71745Z" fill="white"/>
</g>
<defs>
<clipPath id="clip0_239_1573">
<rect width="14.2222" height="16" fill="white" transform="translate(0.777771)"/>
</clipPath>
</defs>
</svg>
