<svg width="16" height="16" viewBox="0 0 16 16" fill="none" xmlns="http://www.w3.org/2000/svg">
<path fill-rule="evenodd" clip-rule="evenodd" d="M7.44434 2.81473C7.44434 2.67155 7.56041 2.55548 7.70359 2.55548H8.29629C8.43947 2.55548 8.55554 2.67155 8.55554 2.81473V3.09675C8.55554 3.67251 8.88084 4.19885 9.39581 4.45634C9.98101 4.74894 10.6878 4.63424 11.1504 4.1716L11.3722 3.94984C11.4734 3.8486 11.6376 3.8486 11.7388 3.94984L12.0501 4.26111C12.1513 4.36235 12.1513 4.5265 12.0501 4.62774L11.8283 4.84949C11.3657 5.31214 11.251 6.01892 11.5436 6.60413C11.8011 7.1191 12.3274 7.4444 12.9032 7.4444H13.1852C13.3284 7.4444 13.4445 7.56047 13.4445 7.70365V8.29635C13.4445 8.43953 13.3284 8.5556 13.1852 8.5556H12.9032C12.3274 8.5556 11.8011 8.8809 11.5436 9.39587C11.251 9.98108 11.3657 10.6879 11.8283 11.1505L12.0501 11.3723C12.1513 11.4735 12.1513 11.6376 12.0501 11.7389L11.7388 12.0502C11.6376 12.1514 11.4734 12.1514 11.3722 12.0502L11.1504 11.8284C10.6878 11.3658 9.98101 11.2511 9.39581 11.5437C8.88084 11.8012 8.55554 12.3275 8.55554 12.9033V13.1853C8.55554 13.3284 8.43947 13.4445 8.29629 13.4445H7.70359C7.56041 13.4445 7.44434 13.3284 7.44434 13.1853V12.9032C7.44434 12.3275 7.11904 11.8012 6.60407 11.5437C6.01886 11.2511 5.31208 11.3658 4.84943 11.8284L4.62768 12.0502C4.52644 12.1514 4.36229 12.1514 4.26105 12.0502L3.94978 11.7389C3.84854 11.6376 3.84854 11.4735 3.94978 11.3723L4.17154 11.1505C4.63418 10.6879 4.74888 9.98108 4.45627 9.39587C4.19879 8.8809 3.67245 8.5556 3.09669 8.5556H2.81467C2.67149 8.5556 2.55542 8.43953 2.55542 8.29635V7.70365C2.55542 7.56047 2.67149 7.4444 2.81467 7.4444H3.09669C3.67245 7.4444 4.19879 7.1191 4.45627 6.60413C4.74888 6.01892 4.63418 5.31214 4.17154 4.84949L3.94978 4.62774C3.84854 4.5265 3.84854 4.36235 3.94978 4.26111L4.26105 3.94984C4.36229 3.8486 4.52644 3.8486 4.62768 3.94984L4.84943 4.1716C5.31208 4.63424 6.01886 4.74894 6.60407 4.45634C7.11904 4.19885 7.44434 3.67251 7.44434 3.09675V2.81473ZM7.70359 1C6.70134 1 5.88886 1.81248 5.88886 2.81473V3.01124L5.72757 2.84995C5.01887 2.14125 3.86985 2.14125 3.16115 2.84995L2.84989 3.16122C2.14119 3.86991 2.14119 5.01893 2.84989 5.72763L3.01118 5.88892H2.81467C1.81242 5.88892 0.999939 6.7014 0.999939 7.70365V8.29635C0.999939 9.2986 1.81242 10.1111 2.81467 10.1111H3.01118L2.84989 10.2724C2.14119 10.9811 2.14119 12.1301 2.84989 12.8388L3.16115 13.15C3.86985 13.8587 5.01887 13.8587 5.72757 13.15L5.88886 12.9888V13.1853C5.88886 14.1875 6.70134 15 7.70359 15H8.29629C9.29854 15 10.111 14.1875 10.111 13.1853V12.9888L10.2723 13.15C10.981 13.8587 12.13 13.8587 12.8387 13.15L13.15 12.8388C13.8587 12.1301 13.8587 10.9811 13.15 10.2724L12.9887 10.1111H13.1852C14.1875 10.1111 14.9999 9.2986 14.9999 8.29635V7.70365C14.9999 6.7014 14.1875 5.88892 13.1852 5.88892H12.9887L13.15 5.72763C13.8587 5.01894 13.8587 3.86991 13.15 3.16122L12.8387 2.84995C12.13 2.14126 10.981 2.14125 10.2723 2.84995L10.111 3.01124V2.81473C10.111 1.81248 9.29854 1 8.29629 1H7.70359ZM6.99989 7.99971C6.99989 7.44755 7.44751 6.99993 7.99968 6.99993C8.55185 6.99993 8.99946 7.44755 8.99946 7.99971C8.99946 8.55188 8.55185 8.9995 7.99968 8.9995C7.44751 8.9995 6.99989 8.55188 6.99989 7.99971ZM7.99968 5.44444C6.58844 5.44444 5.44441 6.58848 5.44441 7.99971C5.44441 9.41095 6.58844 10.555 7.99968 10.555C9.41092 10.555 10.5549 9.41095 10.5549 7.99971C10.5549 6.58848 9.41092 5.44444 7.99968 5.44444Z" fill="#5C5C5C"/>
</svg>
