<svg width="50" height="50" viewBox="0 0 50 50" fill="none" xmlns="http://www.w3.org/2000/svg">
<rect x="1" y="1" width="48" height="48" rx="7" fill="#ECF0FF"/>
<path d="M12.092 30V20.13H16.474C17.5567 20.13 18.3827 20.3913 18.952 20.914C19.5213 21.4367 19.806 22.1553 19.806 23.07C19.806 23.9753 19.5213 24.694 18.952 25.226C18.3827 25.758 17.5567 26.024 16.474 26.024H13.898V30H12.092ZM13.898 24.596H16.264C16.8613 24.596 17.3093 24.4653 17.608 24.204C17.9067 23.9333 18.056 23.5553 18.056 23.07C18.056 22.5847 17.9067 22.2113 17.608 21.95C17.3093 21.6793 16.8613 21.544 16.264 21.544H13.898V24.596ZM21.4162 30V20.13H25.0002C26.1296 20.13 27.0816 20.326 27.8562 20.718C28.6402 21.1007 29.2329 21.6607 29.6342 22.398C30.0356 23.126 30.2362 24.0127 30.2362 25.058C30.2362 26.094 30.0356 26.9807 29.6342 27.718C29.2329 28.4553 28.6402 29.02 27.8562 29.412C27.0816 29.804 26.1296 30 25.0002 30H21.4162ZM23.2222 28.502H24.8882C26.0829 28.502 26.9696 28.2173 27.5482 27.648C28.1269 27.0787 28.4162 26.2153 28.4162 25.058C28.4162 23.8913 28.1269 23.028 27.5482 22.468C26.9696 21.8987 26.0829 21.614 24.8882 21.614H23.2222V28.502ZM32.0803 30V20.13H38.5903V21.544H33.8863V24.344H38.2683V25.758H33.8863V30H32.0803Z" fill="#2D5BFF"/>
<rect x="1" y="1" width="48" height="48" rx="7" stroke="#2D5BFF" stroke-width="2"/>
</svg>
