<svg width="16" height="16" viewBox="0 0 16 16" fill="none" xmlns="http://www.w3.org/2000/svg">
<path fill-rule="evenodd" clip-rule="evenodd" d="M7.99986 9.52934C10.4755 9.52934 12.3858 7.56826 12.3858 5.26442C12.3858 2.96059 10.4755 0.999512 7.99986 0.999512C5.5242 0.999512 3.6139 2.96059 3.6139 5.26442C3.6139 7.56826 5.5242 9.52934 7.99986 9.52934ZM10.8069 5.26442C10.8069 6.79144 9.55013 8.02934 7.99986 8.02934C6.44959 8.02934 5.19284 6.79144 5.19284 5.26442C5.19284 3.73741 6.44959 2.49951 7.99986 2.49951C9.55013 2.49951 10.8069 3.73741 10.8069 5.26442ZM4.57889 12.5224C4.57889 12.5249 4.57906 12.5244 4.58016 12.5211C4.58938 12.4936 4.66354 12.2728 5.2442 12.0128C5.83478 11.7483 6.76505 11.5443 7.99994 11.5443C9.23484 11.5443 10.1651 11.7483 10.7557 12.0128C11.3363 12.2728 11.4105 12.4936 11.4197 12.5211C11.4208 12.5244 11.421 12.5249 11.421 12.5224L11.421 13.8724V14.1627V14.2294V14.2453V14.2492V14.2501V14.2504V14.2504V14.2505C11.421 14.6647 11.7745 15.0005 12.2105 15.0005C12.6465 15.0005 12.9999 14.6647 12.9999 14.2504V14.2504V14.2504V14.2501V14.2492V14.2453V14.2294V14.1627V13.8724V12.5224C12.9999 11.6348 12.226 11.0128 11.4289 10.6559C10.5722 10.2723 9.39723 10.0443 7.99994 10.0443C6.60265 10.0443 5.42766 10.2723 4.57101 10.6559C3.77393 11.0128 2.99994 11.6348 2.99994 12.5224V12.5274V12.5325V12.5376V12.5426V12.5477V12.5528V12.5578V12.5629V12.5679V12.573V12.5781V12.5831V12.5882V12.5932V12.5983V12.6034V12.6084V12.6135V12.6185V12.6236V12.6286V12.6337V12.6387V12.6438V12.6488V12.6539V12.6589V12.664V12.669V12.6741V12.6791V12.6842V12.6892V12.6943V12.6993V12.7043V12.7094V12.7144V12.7194V12.7245V12.7295V12.7345V12.7396V12.7446V12.7496V12.7546V12.7597V12.7647V12.7697V12.7747V12.7797V12.7847V12.7897V12.7948V12.7998V12.8048V12.8098V12.8148V12.8198V12.8248V12.8297V12.8347V12.8397V12.8447V12.8497V12.8547V12.8596V12.8646V12.8696V12.8746V12.8795V12.8845V12.8895V12.8944V12.8994V12.9043V12.9093V12.9142V12.9192V12.9241V12.929V12.934V12.9389V12.9438V12.9488V12.9537V12.9586V12.9635V12.9684V12.9733V12.9782V12.9831V12.988V12.9929V12.9978V13.0027V13.0076V13.0125V13.0173V13.0222V13.0271V13.0319V13.0368V13.0417V13.0465V13.0514V13.0562V13.061V13.0659V13.0707V13.0755V13.0804V13.0852V13.09V13.0948V13.0996V13.1044V13.1092V13.114V13.1188V13.1236V13.1283V13.1331V13.1379V13.1426V13.1474V13.1522V13.1569V13.1617V13.1664V13.1711V13.1759V13.1806V13.1853V13.19V13.1947V13.1994V13.2041V13.2088V13.2135V13.2182V13.2229V13.2275V13.2322V13.2368V13.2415V13.2461V13.2508V13.2554V13.2601V13.2647V13.2693V13.2739V13.2785V13.2831V13.2877V13.2923V13.2969V13.3015V13.306V13.3106V13.3152V13.3197V13.3243V13.3288V13.3333V13.3379V13.3424V13.3469V13.3514V13.3559V13.3604V13.3649V13.3694V13.3739V13.3783V13.3828V13.3872V13.3917V13.3961V13.4006V13.405V13.4094V13.4138V13.4182V13.4226V13.427V13.4314V13.4358V13.4401V13.4445V13.4489V13.4532V13.4575V13.4619V13.4662V13.4705V13.4748V13.4791V13.4834V13.4877V13.492V13.4963V13.5005V13.5048V13.509V13.5133V13.5175V13.5217V13.5259V13.5301V13.5343V13.5385V13.5427V13.5469V13.551V13.5552V13.5594V13.5635V13.5676V13.5718V13.5759V13.58V13.5841V13.5882V13.5922V13.5963V13.6004V13.6044V13.6085V13.6125V13.6165V13.6206V13.6246V13.6286V13.6326V13.6365V13.6405V13.6445V13.6484V13.6524V13.6563V13.6602V13.6642V13.6681V13.672V13.6759V13.6797V13.6836V13.6875V13.6913V13.6952V13.699V13.7028V13.7066V13.7104V13.7142V13.718V13.7218V13.7255V13.7293V13.733V13.7368V13.7405V13.7442V13.7479V13.7516V13.7553V13.7589V13.7626V13.7663V13.7699V13.7735V13.7771V13.7807V13.7843V13.7879V13.7915V13.7951V13.7986V13.8022V13.8057V13.8092V13.8127V13.8162V13.8197V13.8232V13.8267V13.8301V13.8336V13.837V13.8404V13.8438V13.8472V13.8506V13.854V13.8574V13.8607V13.864V13.8674V13.8707V13.874V13.8773V13.8806V13.8839V13.8871V13.8904V13.8936V13.8968V13.9V13.9032V13.9064V13.9096V13.9128V13.9159V13.9191V13.9222V13.9253V13.9284V13.9315V13.9346V13.9376V13.9407V13.9437V13.9468V13.9498V13.9528V13.9558V13.9588V13.9617V13.9647V13.9676V13.9705V13.9735V13.9764V13.9793V13.9821V13.985V13.9878V13.9907V13.9935V13.9963V13.9991V14.0019V14.0047V14.0074V14.0102V14.0129V14.0156V14.0183V14.021V14.0237V14.0263V14.029V14.0316V14.0343V14.0369V14.0395V14.042V14.0446V14.0472V14.0497V14.0522V14.0547V14.0572V14.0597V14.0622V14.0646V14.0671V14.0695V14.0719V14.0743V14.0767V14.0791V14.0814V14.0838V14.0861V14.0884V14.0907V14.093V14.0952V14.0975V14.0997V14.1019V14.1042V14.1063V14.1085V14.1107V14.1128V14.115V14.1171V14.1192V14.1213V14.1233V14.1254V14.1274V14.1295V14.1315V14.1335V14.1355V14.1374V14.1394V14.1413V14.1432V14.1451V14.147V14.1489V14.1507V14.1526V14.1544V14.1562V14.158V14.1598V14.1615V14.1633V14.165V14.1667V14.1684V14.1701V14.1718V14.1734V14.1751V14.1767V14.1783V14.1798V14.1814V14.183V14.1845V14.186V14.1875V14.189V14.1905V14.1919V14.1933V14.1948V14.1962V14.1975V14.1989V14.2003V14.2016V14.2029V14.2042V14.2055V14.2068V14.208V14.2092V14.2104V14.2116V14.2128V14.214V14.2151V14.2162V14.2174V14.2184V14.2195V14.2206V14.2216V14.2226V14.2236V14.2246V14.2256V14.2265V14.2275V14.2284V14.2293V14.2302V14.231V14.2319V14.2327V14.2335V14.2343V14.235V14.2358V14.2365V14.2372V14.2379V14.2386V14.2393V14.2399V14.2405V14.2411V14.2417V14.2423V14.2428V14.2434V14.2439V14.2444V14.2448V14.2453V14.2457V14.2462V14.2465V14.2469V14.2473V14.2476V14.2479V14.2482V14.2485V14.2488V14.249V14.2493V14.2495V14.2497V14.2498V14.25V14.2501V14.2502V14.2503V14.2504V14.2504V14.2504C2.99994 14.6647 3.3534 15.0005 3.78941 15.0005C4.22543 15.0005 4.57889 14.6647 4.57889 14.2504V14.2504V14.2504V14.2503V14.2502V14.2501V14.25V14.2498V14.2497V14.2495V14.2493V14.249V14.2488V14.2485V14.2482V14.2479V14.2476V14.2473V14.2469V14.2465V14.2462V14.2457V14.2453V14.2448V14.2444V14.2439V14.2434V14.2428V14.2423V14.2417V14.2411V14.2405V14.2399V14.2393V14.2386V14.2379V14.2372V14.2365V14.2358V14.235V14.2343V14.2335V14.2327V14.2319V14.231V14.2302V14.2293V14.2284V14.2275V14.2265V14.2256V14.2246V14.2236V14.2226V14.2216V14.2206V14.2195V14.2184V14.2174V14.2162V14.2151V14.214V14.2128V14.2116V14.2104V14.2092V14.208V14.2068V14.2055V14.2042V14.2029V14.2016V14.2003V14.1989V14.1975V14.1962V14.1948V14.1933V14.1919V14.1905V14.189V14.1875V14.186V14.1845V14.183V14.1814V14.1798V14.1783V14.1767V14.1751V14.1734V14.1718V14.1701V14.1684V14.1667V14.165V14.1633V14.1615V14.1598V14.158V14.1562V14.1544V14.1526V14.1507V14.1489V14.147V14.1451V14.1432V14.1413V14.1394V14.1374V14.1355V14.1335V14.1315V14.1295V14.1274V14.1254V14.1233V14.1213V14.1192V14.1171V14.115V14.1128V14.1107V14.1085V14.1063V14.1042V14.1019V14.0997V14.0975V14.0952V14.093V14.0907V14.0884V14.0861V14.0838V14.0814V14.0791V14.0767V14.0743V14.0719V14.0695V14.0671V14.0646V14.0622V14.0597V14.0572V14.0547V14.0522V14.0497V14.0472V14.0446V14.042V14.0395V14.0369V14.0343V14.0316V14.029V14.0263V14.0237V14.021V14.0183V14.0156V14.0129V14.0102V14.0074V14.0047V14.0019V13.9991V13.9963V13.9935V13.9907V13.9878V13.985V13.9821V13.9793V13.9764V13.9735V13.9705V13.9676V13.9647V13.9617V13.9588V13.9558V13.9528V13.9498V13.9468V13.9437V13.9407V13.9376V13.9346V13.9315V13.9284V13.9253V13.9222V13.9191V13.9159V13.9128V13.9096V13.9064V13.9032V13.9V13.8968V13.8936V13.8904V13.8871V13.8839V13.8806V13.8773V13.874V13.8707V13.8674V13.864V13.8607V13.8574V13.854V13.8506V13.8472V13.8438V13.8404V13.837V13.8336V13.8301V13.8267V13.8232V13.8197V13.8162V13.8127V13.8092V13.8057V13.8022V13.7986V13.7951V13.7915V13.7879V13.7843V13.7807V13.7771V13.7735V13.7699V13.7663V13.7626V13.7589V13.7553V13.7516V13.7479V13.7442V13.7405V13.7368V13.733V13.7293V13.7255V13.7218V13.718V13.7142V13.7104V13.7066V13.7028V13.699V13.6952V13.6913V13.6875V13.6836V13.6797V13.6759V13.672V13.6681V13.6642V13.6602V13.6563V13.6524V13.6484V13.6445V13.6405V13.6365V13.6326V13.6286V13.6246V13.6206V13.6165V13.6125V13.6085V13.6044V13.6004V13.5963V13.5922V13.5882V13.5841V13.58V13.5759V13.5718V13.5676V13.5635V13.5594V13.5552V13.551V13.5469V13.5427V13.5385V13.5343V13.5301V13.5259V13.5217V13.5175V13.5133V13.509V13.5048V13.5005V13.4963V13.492V13.4877V13.4834V13.4791V13.4748V13.4705V13.4662V13.4619V13.4575V13.4532V13.4489V13.4445V13.4401V13.4358V13.4314V13.427V13.4226V13.4182V13.4138V13.4094V13.405V13.4006V13.3961V13.3917V13.3872V13.3828V13.3783V13.3739V13.3694V13.3649V13.3604V13.3559V13.3514V13.3469V13.3424V13.3379V13.3333V13.3288V13.3243V13.3197V13.3152V13.3106V13.306V13.3015V13.2969V13.2923V13.2877V13.2831V13.2785V13.2739V13.2693V13.2647V13.2601V13.2554V13.2508V13.2461V13.2415V13.2368V13.2322V13.2275V13.2229V13.2182V13.2135V13.2088V13.2041V13.1994V13.1947V13.19V13.1853V13.1806V13.1759V13.1711V13.1664V13.1617V13.1569V13.1522V13.1474V13.1426V13.1379V13.1331V13.1283V13.1236V13.1188V13.114V13.1092V13.1044V13.0996V13.0948V13.09V13.0852V13.0804V13.0755V13.0707V13.0659V13.061V13.0562V13.0514V13.0465V13.0417V13.0368V13.0319V13.0271V13.0222V13.0173V13.0125V13.0076V13.0027V12.9978V12.9929V12.988V12.9831V12.9782V12.9733V12.9684V12.9635V12.9586V12.9537V12.9488V12.9438V12.9389V12.934V12.929V12.9241V12.9192V12.9142V12.9093V12.9043V12.8994V12.8944V12.8895V12.8845V12.8795V12.8746V12.8696V12.8646V12.8596V12.8547V12.8497V12.8447V12.8397V12.8347V12.8297V12.8248V12.8198V12.8148V12.8098V12.8048V12.7998V12.7948V12.7897V12.7847V12.7797V12.7747V12.7697V12.7647V12.7597V12.7546V12.7496V12.7446V12.7396V12.7345V12.7295V12.7245V12.7194V12.7144V12.7094V12.7043V12.6993V12.6943V12.6892V12.6842V12.6791V12.6741V12.669V12.664V12.6589V12.6539V12.6488V12.6438V12.6387V12.6337V12.6286V12.6236V12.6185V12.6135V12.6084V12.6034V12.5983V12.5932V12.5882V12.5831V12.5781V12.573V12.5679V12.5629V12.5578V12.5528V12.5477V12.5426V12.5376V12.5325V12.5274V12.5224Z" fill="#5C5C5C"/>
</svg>
