<svg width="17" height="16" viewBox="0 0 17 16" fill="none" xmlns="http://www.w3.org/2000/svg">
<path fill-rule="evenodd" clip-rule="evenodd" d="M5.69932 8.98699C5.385 8.70752 4.92218 8.75848 4.66559 9.10083C4.40899 9.44317 4.45578 9.94725 4.7701 10.2267L7.4159 12.5792C8.04686 13.1403 8.95314 13.1403 9.58409 12.5792L12.2299 10.2267C12.5442 9.94726 12.591 9.44317 12.3344 9.10083C12.0778 8.75848 11.615 8.70752 11.3007 8.98699L8.65487 11.3395C8.56473 11.4196 8.43526 11.4196 8.34513 11.3395L5.69932 8.98699ZM5.69932 3.18035C5.38501 2.90087 4.92218 2.95184 4.66559 3.29418C4.40899 3.63653 4.45578 4.14061 4.7701 4.42009L7.4159 6.7726C8.04686 7.33361 8.95314 7.33361 9.58409 6.7726L12.2299 4.42009C12.5442 4.14061 12.591 3.63653 12.3344 3.29418C12.0778 2.95184 11.615 2.90087 11.3007 3.18035L8.65487 5.53286C8.56473 5.61301 8.43526 5.61301 8.34513 5.53286L5.69932 3.18035Z" fill="#2D5BFF"/>
</svg>
