<svg width="16" height="16" viewBox="0 0 16 16" fill="none" xmlns="http://www.w3.org/2000/svg">
<path fill-rule="evenodd" clip-rule="evenodd" d="M10.9563 2.00003C10.5 2.00003 10.1301 2.37137 10.1301 2.82944C10.1301 3.28751 10.5 3.65885 10.9563 3.65885H12.0722C12.2243 3.65885 12.3476 3.78263 12.3476 3.93532V12.0647C12.3476 12.2174 12.2243 12.3412 12.0722 12.3412H10.9563C10.5 12.3412 10.1301 12.7126 10.1301 13.1706C10.1301 13.6287 10.5 14 10.9563 14H12.0722C13.1369 14 14 13.1336 14 12.0647V3.93532C14 2.86649 13.1369 2.00003 12.0722 2.00003H10.9563ZM6.84197 10.3351L8.36916 8.80193L2.8262 8.80193C2.3699 8.80193 2 8.43059 2 7.97252C2 7.51445 2.3699 7.14311 2.8262 7.14311L8.36916 7.14312L6.84197 5.60999C6.51932 5.28609 6.51932 4.76094 6.84197 4.43703C7.16462 4.11313 7.68774 4.11313 8.01039 4.43703L10.169 6.60407C10.9219 7.35985 10.9219 8.5852 10.169 9.34098L8.01039 11.508C7.68774 11.8319 7.16462 11.8319 6.84197 11.508C6.51932 11.1841 6.51932 10.659 6.84197 10.3351Z" fill="#5C5C5C"/>
</svg>
