<svg width="32" height="36" viewBox="0 0 32 36" fill="none" xmlns="http://www.w3.org/2000/svg">
<path d="M0.469365 27C1.20405 28.2754 2.70104 28.9741 4.71727 29.1349C4.60679 28.7523 4.6068 28.3586 4.70623 27.9871C3.14848 27.854 2.01054 27.3438 1.48025 26.4177C0.485938 24.6876 1.79511 21.8262 4.59575 18.8429C5.76682 19.9963 7.14228 21.1442 8.67794 22.2477C8.86023 24.1386 9.16404 25.902 9.57282 27.4991C9.31871 27.5601 9.06461 27.6155 8.81604 27.6654C8.98175 28.037 9.03699 28.4418 8.98175 28.8299C9.28005 28.7689 9.57834 28.7079 9.88768 28.6359C11.2466 33.1275 13.4561 36 15.9972 36C18.5382 36 20.7533 33.122 22.1066 28.6248C26.6639 29.695 30.2544 29.2126 31.5249 27C32.2596 25.7246 32.1105 24.0721 31.2432 22.2421C30.967 22.525 30.6245 22.7246 30.26 22.8244C30.9228 24.244 31.0499 25.4861 30.5196 26.4122C29.5253 28.1423 26.4043 28.4307 22.427 27.488C22.8358 25.8965 23.1396 24.1275 23.3219 22.2366C24.8575 21.1331 26.2275 19.9852 27.4041 18.8318C27.5809 19.0314 27.7576 19.22 27.9233 19.414C28.1664 19.0813 28.4868 18.8373 28.8403 18.6876C28.6414 18.4603 28.4371 18.2329 28.2216 18C31.4255 14.573 32.801 11.2126 31.5305 9C30.26 6.78743 26.6694 6.30499 22.1122 7.37523C20.7588 2.878 18.5437 -1.17639e-06 16.0027 -1.39853e-06C14.5388 -1.5265e-06 13.1799 0.953787 12.0365 2.62292C12.4232 2.71719 12.7657 2.91682 13.0363 3.18854C13.9257 1.90203 14.9366 1.17005 16.0027 1.17005C17.9913 1.17005 19.8031 3.74307 20.9797 7.66913C19.3999 8.11275 17.7261 8.72828 16.0027 9.51571C14.2792 8.72828 12.6055 8.11275 11.0256 7.66913C11.1029 7.41405 11.1803 7.17005 11.2631 6.92606C10.8599 6.8817 10.4843 6.72643 10.1749 6.48798C10.0755 6.77634 9.98159 7.07024 9.8932 7.36968C5.33596 6.29944 1.75092 6.78188 0.480416 8.99445C-0.79009 11.207 0.585371 14.5675 3.78925 17.9945C0.574321 21.427 -0.801139 24.7874 0.469365 27ZM5.41882 18C6.34131 17.0961 7.39639 16.1922 8.55641 15.3105C8.50117 16.1867 8.47908 17.085 8.47908 18C8.47908 18.915 8.5067 19.8133 8.56193 20.6895C7.40191 19.8078 6.34684 18.9039 5.41882 18ZM22.3552 17.9945C22.3552 19.2255 22.3 20.4288 22.2005 21.5933C21.2504 22.2588 20.234 22.9076 19.1734 23.5231C18.1128 24.1386 17.0522 24.6932 15.9972 25.1867C14.9421 24.6932 13.8815 24.1331 12.8209 23.5231C11.7603 22.9076 10.7439 22.2588 9.79377 21.5933C9.69434 20.4288 9.6391 19.2255 9.6391 17.9945C9.6391 16.7634 9.69434 15.5601 9.79377 14.4011C10.7439 13.7301 11.7603 13.0869 12.8154 12.4713C13.876 11.8558 14.9421 11.3013 15.9916 10.8078C17.0467 11.3013 18.1073 11.8558 19.1734 12.4713C20.234 13.0869 21.2449 13.7301 22.195 14.4011C22.3 15.5656 22.3552 16.7689 22.3552 17.9945ZM9.95397 23.1238C10.6831 23.6063 11.4454 24.0776 12.2354 24.5379C13.0253 24.9982 13.8152 25.4196 14.5941 25.8133C13.2573 26.3789 11.9481 26.8447 10.7052 27.1941C10.3959 25.9408 10.1418 24.5712 9.95397 23.1238ZM15.9972 34.8299C14.0085 34.8299 12.1967 32.2625 11.0201 28.3309C12.5999 27.8872 14.2737 27.2662 15.9972 26.4843C17.7206 27.2662 19.3944 27.8872 20.9742 28.3309C19.7976 32.2569 17.9913 34.8299 15.9972 34.8299ZM21.2891 27.1941C20.0462 26.8447 18.737 26.3789 17.4002 25.8133C18.1791 25.4196 18.969 24.9982 19.759 24.5379C20.5489 24.0776 21.3112 23.6063 22.0403 23.1238C21.8581 24.5712 21.604 25.9408 21.2891 27.1941ZM23.4434 20.6895C23.4987 19.8133 23.5263 18.915 23.5263 18C23.5263 17.085 23.4987 16.1867 23.4489 15.3105C24.609 16.1922 25.664 17.0961 26.5865 18C25.653 18.9039 24.5979 19.8078 23.4434 20.6895ZM30.5196 9.58225C31.5139 11.3124 30.2047 14.1738 27.4041 17.1571C26.233 16.0037 24.8576 14.8614 23.3219 13.7523C23.1396 11.8614 22.8358 10.098 22.427 8.50647C26.4043 7.56377 29.5253 7.85212 30.5196 9.58225ZM21.2891 8.80037C21.6095 10.0536 21.8636 11.4233 22.0403 12.8706C21.3112 12.3882 20.5489 11.9168 19.7645 11.4566C18.9746 10.9963 18.1846 10.5693 17.4002 10.1811C18.737 9.61553 20.0462 9.15527 21.2891 8.80037ZM14.5996 10.1867C13.8207 10.5804 13.0253 11.0018 12.2354 11.4621C11.4454 11.9168 10.6831 12.3937 9.95949 12.8762C10.1363 11.4288 10.3959 10.0591 10.7107 8.80591C11.9481 9.15527 13.2573 9.61552 14.5996 10.1867ZM1.48025 9.58225C2.47456 7.85212 5.59558 7.56377 9.57282 8.50647C9.16405 10.1035 8.86023 11.8669 8.67794 13.7579C7.14228 14.8614 5.77235 16.0092 4.59575 17.1627C1.79511 14.1737 0.485939 11.3124 1.48025 9.58225Z" fill="#181818"/>
<path d="M15.9971 15.8041C14.789 15.8041 13.8096 16.7872 13.8096 18C13.8096 19.2128 14.789 20.1959 15.9971 20.1959C17.2052 20.1959 18.1846 19.2128 18.1846 18C18.1846 16.7872 17.2052 15.8041 15.9971 15.8041Z" fill="#181818"/>
<path d="M11.495 6.10538C11.5116 6.10538 11.5337 6.10538 11.5503 6.09983C12.2684 6.07211 12.8484 5.47876 12.8484 4.74678C12.8484 4.43625 12.7434 4.14789 12.5667 3.92054C12.3291 3.61 11.9646 3.40482 11.5447 3.38819C11.5282 3.38264 11.5116 3.38264 11.495 3.38264C10.7493 3.38264 10.1472 3.99262 10.1472 4.74124C10.1472 5.08505 10.2742 5.40113 10.4841 5.63403C10.7272 5.92238 11.0918 6.10538 11.495 6.10538Z" fill="#181818"/>
<path d="M7.95963 27.8152C7.57295 27.2052 6.77198 27 6.14225 27.366C5.8771 27.5213 5.67824 27.7542 5.56776 28.0203C5.41862 28.3808 5.42414 28.8022 5.623 29.1738C5.62853 29.1904 5.63958 29.207 5.6451 29.2181C6.02073 29.8669 6.84379 30.0887 7.49009 29.7116C7.78286 29.5397 7.99277 29.2736 8.0922 28.9686C8.21373 28.6137 8.18611 28.2089 7.98725 27.8595C7.98172 27.8429 7.97068 27.8263 7.95963 27.8152Z" fill="#181818"/>
<path d="M29.4147 19.3808C29.0501 19.4529 28.7131 19.6747 28.5088 20.0296C28.4977 20.0462 28.4922 20.0628 28.4811 20.0795C28.1442 20.7227 28.3707 21.5213 29.0004 21.8817C29.2655 22.037 29.5694 22.0869 29.8511 22.0536C30.2377 22.0037 30.5968 21.7874 30.8178 21.4325C30.8288 21.4214 30.8399 21.4048 30.8454 21.3882C31.221 20.7394 30.9945 19.9131 30.3482 19.536C30.061 19.3641 29.7295 19.3198 29.4147 19.3808Z" fill="#181818"/>
</svg>
