<svg width="16" height="16" viewBox="0 0 16 16" fill="none" xmlns="http://www.w3.org/2000/svg">
<path fill-rule="evenodd" clip-rule="evenodd" d="M4.30763 3.66148C3.95077 3.66148 3.66148 3.95078 3.66148 4.30764C3.66148 4.6645 3.95077 4.95379 4.30763 4.95379C4.66449 4.95379 4.95378 4.6645 4.95378 4.30764C4.95378 3.95078 4.66449 3.66148 4.30763 3.66148ZM1.99994 4.30764C1.99994 3.03314 3.03313 1.99995 4.30763 1.99995C5.58213 1.99995 6.61532 3.03314 6.61532 4.30764C6.61532 5.58214 5.58213 6.61533 4.30763 6.61533C3.03313 6.61533 1.99994 5.58214 1.99994 4.30764ZM11.6922 11.0461C11.3354 11.0461 11.0461 11.3354 11.0461 11.6923C11.0461 12.0491 11.3354 12.3384 11.6922 12.3384C12.0491 12.3384 12.3384 12.0491 12.3384 11.6923C12.3384 11.3354 12.0491 11.0461 11.6922 11.0461ZM9.38455 11.6923C9.38455 10.4178 10.4177 9.38456 11.6922 9.38456C12.9668 9.38456 13.9999 10.4178 13.9999 11.6923C13.9999 12.9668 12.9668 13.9999 11.6922 13.9999C10.4177 13.9999 9.38455 12.9668 9.38455 11.6923ZM13.7566 3.41816C14.081 3.09372 14.081 2.56771 13.7566 2.24327C13.4322 1.91884 12.9062 1.91884 12.5817 2.24327L2.24327 12.5817C1.91883 12.9062 1.91883 13.4322 2.24327 13.7566C2.5677 14.0811 3.09372 14.0811 3.41815 13.7566L13.7566 3.41816Z" fill="#5C5C5C"/>
</svg>
