<svg width="24" height="24" viewBox="0 0 24 24" fill="none" xmlns="http://www.w3.org/2000/svg">
<path fill-rule="evenodd" clip-rule="evenodd" d="M14.9532 8C14.9532 11.3137 12.2669 14 8.95319 14C5.63948 14 2.95319 11.3137 2.95319 8C2.95319 4.68629 5.63948 2 8.95319 2C12.2669 2 14.9532 4.68629 14.9532 8ZM8.95319 12C11.1623 12 12.9532 10.2091 12.9532 8C12.9532 5.79086 11.1623 4 8.95319 4C6.74405 4 4.95319 5.79086 4.95319 8C4.95319 10.2091 6.74405 12 8.95319 12ZM4.97814 17.6878C4.05897 18.1157 4 18.4891 4 18.5V18.5073V18.5146V18.522V18.5293V18.5366V18.5439V18.5513V18.5586V18.5659V18.5732V18.5806V18.5879V18.5952V18.6025V18.6098V18.6171V18.6245V18.6318V18.6391V18.6464V18.6537V18.661V18.6683V18.6757V18.683V18.6903V18.6976V18.7049V18.7122V18.7195V18.7268V18.7341V18.7414V18.7487V18.7559V18.7632V18.7705V18.7778V18.7851V18.7924V18.7997V18.8069V18.8142V18.8215V18.8287V18.836V18.8433V18.8505V18.8578V18.865V18.8723V18.8796V18.8868V18.894V18.9013V18.9085V18.9158V18.923V18.9302V18.9374V18.9447V18.9519V18.9591V18.9663V18.9735V18.9807V18.9879V18.9951V19.0023V19.0095V19.0167V19.0239V19.031V19.0382V19.0454V19.0526V19.0597V19.0669V19.074V19.0812V19.0883V19.0955V19.1026V19.1097V19.1168V19.124V19.1311V19.1382V19.1453V19.1524V19.1595V19.1666V19.1737V19.1807V19.1878V19.1949V19.202V19.209V19.2161V19.2231V19.2302V19.2372V19.2442V19.2512V19.2583V19.2653V19.2723V19.2793V19.2863V19.2933V19.3003V19.3072V19.3142V19.3212V19.3281V19.3351V19.342V19.349V19.3559V19.3628V19.3697V19.3766V19.3835V19.3904V19.3973V19.4042V19.4111V19.418V19.4248V19.4317V19.4385V19.4454V19.4522V19.459V19.4659V19.4727V19.4795V19.4863V19.4931V19.4998V19.5066V19.5134V19.5201V19.5269V19.5336V19.5404V19.5471V19.5538V19.5605V19.5672V19.5739V19.5806V19.5872V19.5939V19.6006V19.6072V19.6139V19.6205V19.6271V19.6337V19.6403V19.6469V19.6535V19.6601V19.6667V19.6732V19.6798V19.6863V19.6928V19.6994V19.7059V19.7124V19.7189V19.7254V19.7318V19.7383V19.7447V19.7512V19.7576V19.764V19.7705V19.7769V19.7833V19.7896V19.796V19.8024V19.8087V19.8151V19.8214V19.8277V19.834V19.8403V19.8466V19.8529V19.8592V19.8654V19.8717V19.8779V19.8841V19.8903V19.8965V19.9027V19.9089V19.9151V19.9212V19.9274V19.9335V19.9396V19.9457V19.9518V19.9579V19.964V19.9701V19.9761V19.9821V19.9882V19.9942V20.0002V20.0062V20.0122V20.0181V20.0241V20.03V20.0359V20.0419V20.0478V20.0537V20.0595V20.0654V20.0713V20.0771V20.0829V20.0887V20.0945V20.1003V20.1061V20.1119V20.1176V20.1233V20.1291V20.1348V20.1405V20.1462V20.1518V20.1575V20.1631V20.1687V20.1744V20.18V20.1855V20.1911V20.1967V20.2022V20.2077V20.2132V20.2188V20.2242V20.2297V20.2352V20.2406V20.246V20.2514V20.2568V20.2622V20.2676V20.273V20.2783V20.2836V20.2889V20.2942V20.2995V20.3048V20.31V20.3153V20.3205V20.3257V20.3309V20.336V20.3412V20.3463V20.3515V20.3566V20.3617V20.3667V20.3718V20.3769V20.3819V20.3869V20.3919V20.3969V20.4018V20.4068V20.4117V20.4167V20.4216V20.4264V20.4313V20.4362V20.441V20.4458V20.4506V20.4554V20.4602V20.4649V20.4696V20.4744V20.4791V20.4837V20.4884V20.4931V20.4977V20.5023V20.5069V20.5115V20.516V20.5206V20.5251V20.5296V20.5341V20.5386V20.543V20.5475V20.5519V20.5563V20.5607V20.565V20.5694V20.5737V20.578V20.5823V20.5866V20.5908V20.5951V20.5993V20.6035V20.6077V20.6118V20.616V20.6201V20.6242V20.6283V20.6323V20.6364V20.6404V20.6444V20.6484V20.6524V20.6563V20.6603V20.6642V20.6681V20.6719V20.6758V20.6796V20.6834V20.6872V20.691V20.6948V20.6985V20.7022V20.7059V20.7096V20.7132V20.7169V20.7205V20.7241V20.7276V20.7312V20.7347V20.7382V20.7417V20.7452V20.7486V20.752V20.7555V20.7588V20.7622V20.7655V20.7689V20.7722V20.7754V20.7787V20.7819V20.7852V20.7883V20.7915V20.7947V20.7978V20.8009V20.804V20.8071V20.8101V20.8131V20.8161V20.8191V20.822V20.825V20.8279V20.8308V20.8336V20.8365V20.8393V20.8421V20.8449V20.8476V20.8504V20.8531V20.8558V20.8584V20.8611V20.8637V20.8663V20.8688V20.8714V20.8739V20.8764V20.8789V20.8813V20.8838V20.8862V20.8886V20.8909V20.8933V20.8956V20.8979V20.9001V20.9024V20.9046V20.9068V20.9089V20.9111V20.9132V20.9153V20.9174V20.9194V20.9215V20.9235V20.9254V20.9274V20.9293V20.9312V20.9331V20.935V20.9368V20.9386V20.9404V20.9421V20.9438V20.9456V20.9472V20.9489V20.9505V20.9521V20.9537V20.9552V20.9568V20.9583V20.9598V20.9612V20.9626V20.964V20.9654V20.9667V20.9681V20.9694V20.9706V20.9719V20.9731V20.9743V20.9755V20.9766V20.9777V20.9788V20.9799V20.9809V20.9819V20.9829V20.9838V20.9848V20.9857V20.9865V20.9874V20.9882V20.989V20.9898V20.9905V20.9912V20.9919V20.9925V20.9932V20.9938V20.9944V20.9949V20.9954V20.9959V20.9964V20.9968V20.9972V20.9976V20.998V20.9983V20.9986V20.9988V20.9991V20.9993V20.9995V20.9996V20.9998V20.9999V20.9999V21C4 21.5523 3.55228 22 3 22C2.44772 22 2 21.5523 2 21V20.9999V20.9999V20.9998V20.9996V20.9995V20.9993V20.9991V20.9988V20.9986V20.9983V20.998V20.9976V20.9972V20.9968V20.9964V20.9959V20.9954V20.9949V20.9944V20.9938V20.9932V20.9925V20.9919V20.9912V20.9905V20.9898V20.989V20.9882V20.9874V20.9865V20.9857V20.9848V20.9838V20.9829V20.9819V20.9809V20.9799V20.9788V20.9777V20.9766V20.9755V20.9743V20.9731V20.9719V20.9706V20.9694V20.9681V20.9667V20.9654V20.964V20.9626V20.9612V20.9598V20.9583V20.9568V20.9552V20.9537V20.9521V20.9505V20.9489V20.9472V20.9456V20.9438V20.9421V20.9404V20.9386V20.9368V20.935V20.9331V20.9312V20.9293V20.9274V20.9254V20.9235V20.9215V20.9194V20.9174V20.9153V20.9132V20.9111V20.9089V20.9068V20.9046V20.9024V20.9001V20.8979V20.8956V20.8933V20.8909V20.8886V20.8862V20.8838V20.8813V20.8789V20.8764V20.8739V20.8714V20.8688V20.8663V20.8637V20.8611V20.8584V20.8558V20.8531V20.8504V20.8476V20.8449V20.8421V20.8393V20.8365V20.8336V20.8308V20.8279V20.825V20.822V20.8191V20.8161V20.8131V20.8101V20.8071V20.804V20.8009V20.7978V20.7947V20.7915V20.7883V20.7852V20.7819V20.7787V20.7754V20.7722V20.7689V20.7655V20.7622V20.7588V20.7555V20.752V20.7486V20.7452V20.7417V20.7382V20.7347V20.7312V20.7276V20.7241V20.7205V20.7169V20.7132V20.7096V20.7059V20.7022V20.6985V20.6948V20.691V20.6872V20.6834V20.6796V20.6758V20.6719V20.6681V20.6642V20.6603V20.6563V20.6524V20.6484V20.6444V20.6404V20.6364V20.6323V20.6283V20.6242V20.6201V20.616V20.6118V20.6077V20.6035V20.5993V20.5951V20.5908V20.5866V20.5823V20.578V20.5737V20.5694V20.565V20.5607V20.5563V20.5519V20.5475V20.543V20.5386V20.5341V20.5296V20.5251V20.5206V20.516V20.5115V20.5069V20.5023V20.4977V20.4931V20.4884V20.4837V20.4791V20.4744V20.4696V20.4649V20.4602V20.4554V20.4506V20.4458V20.441V20.4362V20.4313V20.4264V20.4216V20.4167V20.4117V20.4068V20.4018V20.3969V20.3919V20.3869V20.3819V20.3769V20.3718V20.3667V20.3617V20.3566V20.3515V20.3463V20.3412V20.336V20.3309V20.3257V20.3205V20.3153V20.31V20.3048V20.2995V20.2942V20.2889V20.2836V20.2783V20.273V20.2676V20.2622V20.2568V20.2514V20.246V20.2406V20.2352V20.2297V20.2242V20.2188V20.2132V20.2077V20.2022V20.1967V20.1911V20.1855V20.18V20.1744V20.1687V20.1631V20.1575V20.1518V20.1462V20.1405V20.1348V20.1291V20.1233V20.1176V20.1119V20.1061V20.1003V20.0945V20.0887V20.0829V20.0771V20.0713V20.0654V20.0595V20.0537V20.0478V20.0419V20.0359V20.03V20.0241V20.0181V20.0122V20.0062V20.0002V19.9942V19.9882V19.9821V19.9761V19.9701V19.964V19.9579V19.9518V19.9457V19.9396V19.9335V19.9274V19.9212V19.9151V19.9089V19.9027V19.8965V19.8903V19.8841V19.8779V19.8717V19.8654V19.8592V19.8529V19.8466V19.8403V19.834V19.8277V19.8214V19.8151V19.8087V19.8024V19.796V19.7896V19.7833V19.7769V19.7705V19.764V19.7576V19.7512V19.7447V19.7383V19.7318V19.7254V19.7189V19.7124V19.7059V19.6994V19.6928V19.6863V19.6798V19.6732V19.6667V19.6601V19.6535V19.6469V19.6403V19.6337V19.6271V19.6205V19.6139V19.6072V19.6006V19.5939V19.5872V19.5806V19.5739V19.5672V19.5605V19.5538V19.5471V19.5404V19.5336V19.5269V19.5201V19.5134V19.5066V19.4998V19.4931V19.4863V19.4795V19.4727V19.4659V19.459V19.4522V19.4454V19.4385V19.4317V19.4248V19.418V19.4111V19.4042V19.3973V19.3904V19.3835V19.3766V19.3697V19.3628V19.3559V19.349V19.342V19.3351V19.3281V19.3212V19.3142V19.3072V19.3003V19.2933V19.2863V19.2793V19.2723V19.2653V19.2583V19.2512V19.2442V19.2372V19.2302V19.2231V19.2161V19.209V19.202V19.1949V19.1878V19.1807V19.1737V19.1666V19.1595V19.1524V19.1453V19.1382V19.1311V19.124V19.1168V19.1097V19.1026V19.0955V19.0883V19.0812V19.074V19.0669V19.0597V19.0526V19.0454V19.0382V19.031V19.0239V19.0167V19.0095V19.0023V18.9951V18.9879V18.9807V18.9735V18.9663V18.9591V18.9519V18.9447V18.9374V18.9302V18.923V18.9158V18.9085V18.9013V18.894V18.8868V18.8796V18.8723V18.865V18.8578V18.8505V18.8433V18.836V18.8287V18.8215V18.8142V18.8069V18.7997V18.7924V18.7851V18.7778V18.7705V18.7632V18.7559V18.7487V18.7414V18.7341V18.7268V18.7195V18.7122V18.7049V18.6976V18.6903V18.683V18.6757V18.6683V18.661V18.6537V18.6464V18.6391V18.6318V18.6245V18.6171V18.6098V18.6025V18.5952V18.5879V18.5806V18.5732V18.5659V18.5586V18.5513V18.5439V18.5366V18.5293V18.522V18.5146V18.5073V18.5C2 17.2609 3.03928 16.3843 4.13413 15.8747C5.3084 15.328 6.92666 15 8.85957 15C10.7925 15 12.4107 15.328 13.585 15.8747C14.6799 16.3843 15.7191 17.2609 15.7191 18.5L15.7191 20.4531V20.873V20.9695V20.9925V20.9981V20.9995V20.9999V21V21C15.7191 21.5523 15.2714 22 14.7191 22C14.1668 22 13.7191 21.5523 13.7191 21V21V20.9999V20.9995V20.9982V20.9925V20.9695V20.873V20.4531L13.7191 18.5C13.7191 18.4891 13.6602 18.1157 12.741 17.6878C11.9013 17.297 10.5897 17 8.85957 17C7.12941 17 5.81788 17.297 4.97814 17.6878ZM15.722 4.3822C15.722 3.82992 16.1697 3.3822 16.722 3.3822C19.4835 3.3822 21.722 5.62078 21.722 8.3822C21.722 11.1436 19.4835 13.3822 16.722 13.3822C16.1697 13.3822 15.722 12.9345 15.722 12.3822C15.722 11.8299 16.1697 11.3822 16.722 11.3822C18.3789 11.3822 19.722 10.0391 19.722 8.3822C19.722 6.72535 18.3789 5.3822 16.722 5.3822C16.1697 5.3822 15.722 4.93449 15.722 4.3822ZM16 16C16 15.4477 16.4477 15 17 15C18.6874 15 19.9427 15.4718 20.7897 16.2249C21.6273 16.9695 22 17.9356 22 18.7778V18.7875V18.7973V18.807V18.8166V18.8263V18.8359V18.8455V18.8551V18.8646V18.8742V18.8837V18.8931V18.9026V18.912V18.9214V18.9308V18.9401V18.9495V18.9588V18.968V18.9773V18.9865V18.9957V19.0049V19.014V19.0232V19.0323V19.0413V19.0504V19.0594V19.0684V19.0774V19.0863V19.0953V19.1042V19.1131V19.1219V19.1307V19.1395V19.1483V19.1571V19.1658V19.1745V19.1832V19.1919V19.2005V19.2091V19.2177V19.2262V19.2348V19.2433V19.2518V19.2603V19.2687V19.2771V19.2855V19.2939V19.3022V19.3105V19.3188V19.3271V19.3354V19.3436V19.3518V19.36V19.3681V19.3762V19.3843V19.3924V19.4005V19.4085V19.4165V19.4245V19.4325V19.4404V19.4483V19.4562V19.4641V19.4719V19.4798V19.4876V19.4953V19.5031V19.5108V19.5185V19.5262V19.5339V19.5415V19.5491V19.5567V19.5643V19.5718V19.5793V19.5868V19.5943V19.6018V19.6092V19.6166V19.624V19.6313V19.6387V19.646V19.6533V19.6605V19.6678V19.675V19.6822V19.6894V19.6965V19.7036V19.7108V19.7178V19.7249V19.7319V19.739V19.7459V19.7529V19.7599V19.7668V19.7737V19.7806V19.7874V19.7943V19.8011V19.8079V19.8147V19.8214V19.8281V19.8348V19.8415V19.8482V19.8548V19.8614V19.868V19.8746V19.8811V19.8876V19.8942V19.9006V19.9071V19.9135V19.9199V19.9263V19.9327V19.9391V19.9454V19.9517V19.958V19.9642V19.9705V19.9767V19.9829V19.9891V19.9952V20.0014V20.0075V20.0136V20.0196V20.0257V20.0317V20.0377V20.0437V20.0497V20.0556V20.0615V20.0674V20.0733V20.0791V20.085V20.0908V20.0966V20.1023V20.1081V20.1138V20.1195V20.1252V20.1309V20.1365V20.1421V20.1477V20.1533V20.1589V20.1644V20.1699V20.1754V20.1809V20.1864V20.1918V20.1972V20.2026V20.208V20.2133V20.2187V20.224V20.2293V20.2345V20.2398V20.245V20.2502V20.2554V20.2606V20.2657V20.2708V20.2759V20.281V20.2861V20.2911V20.2961V20.3011V20.3061V20.3111V20.316V20.321V20.3259V20.3307V20.3356V20.3404V20.3453V20.3501V20.3549V20.3596V20.3644V20.3691V20.3738V20.3785V20.3831V20.3878V20.3924V20.397V20.4016V20.4061V20.4107V20.4152V20.4197V20.4242V20.4287V20.4331V20.4375V20.4419V20.4463V20.4507V20.455V20.4594V20.4637V20.468V20.4722V20.4765V20.4807V20.4849V20.4891V20.4933V20.4975V20.5016V20.5057V20.5098V20.5139V20.5179V20.522V20.526V20.53V20.534V20.538V20.5419V20.5458V20.5497V20.5536V20.5575V20.5613V20.5652V20.569V20.5728V20.5766V20.5803V20.5841V20.5878V20.5915V20.5952V20.5988V20.6025V20.6061V20.6097V20.6133V20.6169V20.6204V20.624V20.6275V20.631V20.6345V20.6379V20.6414V20.6448V20.6482V20.6516V20.655V20.6583V20.6617V20.665V20.6683V20.6716V20.6748V20.6781V20.6813V20.6845V20.6877V20.6909V20.694V20.6972V20.7003V20.7034V20.7065V20.7095V20.7126V20.7156V20.7186V20.7216V20.7246V20.7276V20.7305V20.7334V20.7363V20.7392V20.7421V20.7449V20.7478V20.7506V20.7534V20.7562V20.759V20.7617V20.7644V20.7672V20.7699V20.7725V20.7752V20.7779V20.7805V20.7831V20.7857V20.7883V20.7908V20.7934V20.7959V20.7984V20.8009V20.8034V20.8059V20.8083V20.8107V20.8132V20.8155V20.8179V20.8203V20.8226V20.825V20.8273V20.8296V20.8318V20.8341V20.8363V20.8386V20.8408V20.843V20.8452V20.8473V20.8495V20.8516V20.8537V20.8558V20.8579V20.8599V20.862V20.864V20.866V20.868V20.87V20.872V20.8739V20.8759V20.8778V20.8797V20.8816V20.8835V20.8853V20.8872V20.889V20.8908V20.8926V20.8943V20.8961V20.8979V20.8996V20.9013V20.903V20.9047V20.9063V20.908V20.9096V20.9112V20.9128V20.9144V20.916V20.9176V20.9191V20.9206V20.9221V20.9236V20.9251V20.9266V20.928V20.9295V20.9309V20.9323V20.9337V20.935V20.9364V20.9377V20.9391V20.9404V20.9417V20.943V20.9442V20.9455V20.9467V20.9479V20.9492V20.9503V20.9515V20.9527V20.9538V20.955V20.9561V20.9572V20.9583V20.9594V20.9604V20.9615V20.9625V20.9635V20.9645V20.9655V20.9665V20.9674V20.9684V20.9693V20.9702V20.9711V20.972V20.9729V20.9737V20.9746V20.9754V20.9762V20.977V20.9778V20.9786V20.9793V20.9801V20.9808V20.9815V20.9822V20.9829V20.9836V20.9842V20.9849V20.9855V20.9861V20.9867V20.9873V20.9879V20.9885V20.989V20.9896V20.9901V20.9906V20.9911V20.9916V20.992V20.9925V20.9929V20.9934V20.9938V20.9942V20.9946V20.9949V20.9953V20.9956V20.996V20.9963V20.9966V20.9969V20.9972V20.9974V20.9977V20.9979V20.9981V20.9984V20.9986V20.9987V20.9989V20.9991V20.9992V20.9994V20.9995V20.9996V20.9997V20.9998V20.9998V20.9999V20.9999V21V21C22 21.5523 21.5523 22 21 22C20.4477 22 20 21.5523 20 21V21V20.9999V20.9999V20.9998V20.9998V20.9997V20.9996V20.9995V20.9994V20.9992V20.9991V20.9989V20.9987V20.9986V20.9984V20.9981V20.9979V20.9977V20.9974V20.9972V20.9969V20.9966V20.9963V20.996V20.9956V20.9953V20.9949V20.9946V20.9942V20.9938V20.9934V20.9929V20.9925V20.992V20.9916V20.9911V20.9906V20.9901V20.9896V20.989V20.9885V20.9879V20.9873V20.9867V20.9861V20.9855V20.9849V20.9842V20.9836V20.9829V20.9822V20.9815V20.9808V20.9801V20.9793V20.9786V20.9778V20.977V20.9762V20.9754V20.9746V20.9737V20.9729V20.972V20.9711V20.9702V20.9693V20.9684V20.9674V20.9665V20.9655V20.9645V20.9635V20.9625V20.9615V20.9604V20.9594V20.9583V20.9572V20.9561V20.955V20.9538V20.9527V20.9515V20.9503V20.9492V20.9479V20.9467V20.9455V20.9442V20.943V20.9417V20.9404V20.9391V20.9377V20.9364V20.935V20.9337V20.9323V20.9309V20.9295V20.928V20.9266V20.9251V20.9236V20.9221V20.9206V20.9191V20.9176V20.916V20.9144V20.9128V20.9112V20.9096V20.908V20.9063V20.9047V20.903V20.9013V20.8996V20.8979V20.8961V20.8943V20.8926V20.8908V20.889V20.8872V20.8853V20.8835V20.8816V20.8797V20.8778V20.8759V20.8739V20.872V20.87V20.868V20.866V20.864V20.862V20.8599V20.8579V20.8558V20.8537V20.8516V20.8495V20.8473V20.8452V20.843V20.8408V20.8386V20.8363V20.8341V20.8318V20.8296V20.8273V20.825V20.8226V20.8203V20.8179V20.8155V20.8132V20.8107V20.8083V20.8059V20.8034V20.8009V20.7984V20.7959V20.7934V20.7908V20.7883V20.7857V20.7831V20.7805V20.7779V20.7752V20.7725V20.7699V20.7672V20.7644V20.7617V20.759V20.7562V20.7534V20.7506V20.7478V20.7449V20.7421V20.7392V20.7363V20.7334V20.7305V20.7276V20.7246V20.7216V20.7186V20.7156V20.7126V20.7095V20.7065V20.7034V20.7003V20.6972V20.694V20.6909V20.6877V20.6845V20.6813V20.6781V20.6748V20.6716V20.6683V20.665V20.6617V20.6583V20.655V20.6516V20.6482V20.6448V20.6414V20.6379V20.6345V20.631V20.6275V20.624V20.6204V20.6169V20.6133V20.6097V20.6061V20.6025V20.5988V20.5952V20.5915V20.5878V20.5841V20.5803V20.5766V20.5728V20.569V20.5652V20.5613V20.5575V20.5536V20.5497V20.5458V20.5419V20.538V20.534V20.53V20.526V20.522V20.5179V20.5139V20.5098V20.5057V20.5016V20.4975V20.4933V20.4891V20.4849V20.4807V20.4765V20.4722V20.468V20.4637V20.4594V20.455V20.4507V20.4463V20.4419V20.4375V20.4331V20.4287V20.4242V20.4197V20.4152V20.4107V20.4061V20.4016V20.397V20.3924V20.3878V20.3831V20.3785V20.3738V20.3691V20.3644V20.3596V20.3549V20.3501V20.3453V20.3404V20.3356V20.3307V20.3259V20.321V20.316V20.3111V20.3061V20.3011V20.2961V20.2911V20.2861V20.281V20.2759V20.2708V20.2657V20.2606V20.2554V20.2502V20.245V20.2398V20.2345V20.2293V20.224V20.2187V20.2133V20.208V20.2026V20.1972V20.1918V20.1864V20.1809V20.1754V20.1699V20.1644V20.1589V20.1533V20.1477V20.1421V20.1365V20.1309V20.1252V20.1195V20.1138V20.1081V20.1023V20.0966V20.0908V20.085V20.0791V20.0733V20.0674V20.0615V20.0556V20.0497V20.0437V20.0377V20.0317V20.0257V20.0196V20.0136V20.0075V20.0014V19.9952V19.9891V19.9829V19.9767V19.9705V19.9642V19.958V19.9517V19.9454V19.9391V19.9327V19.9263V19.9199V19.9135V19.9071V19.9006V19.8942V19.8876V19.8811V19.8746V19.868V19.8614V19.8548V19.8482V19.8415V19.8348V19.8281V19.8214V19.8147V19.8079V19.8011V19.7943V19.7874V19.7806V19.7737V19.7668V19.7599V19.7529V19.7459V19.739V19.7319V19.7249V19.7178V19.7108V19.7036V19.6965V19.6894V19.6822V19.675V19.6678V19.6605V19.6533V19.646V19.6387V19.6313V19.624V19.6166V19.6092V19.6018V19.5943V19.5868V19.5793V19.5718V19.5643V19.5567V19.5491V19.5415V19.5339V19.5262V19.5185V19.5108V19.5031V19.4953V19.4876V19.4798V19.4719V19.4641V19.4562V19.4483V19.4404V19.4325V19.4245V19.4165V19.4085V19.4005V19.3924V19.3843V19.3762V19.3681V19.36V19.3518V19.3436V19.3354V19.3271V19.3188V19.3105V19.3022V19.2939V19.2855V19.2771V19.2687V19.2603V19.2518V19.2433V19.2348V19.2262V19.2177V19.2091V19.2005V19.1919V19.1832V19.1745V19.1658V19.1571V19.1483V19.1395V19.1307V19.1219V19.1131V19.1042V19.0953V19.0863V19.0774V19.0684V19.0594V19.0504V19.0413V19.0323V19.0232V19.014V19.0049V18.9957V18.9865V18.9773V18.968V18.9588V18.9495V18.9401V18.9308V18.9214V18.912V18.9026V18.8931V18.8837V18.8742V18.8646V18.8551V18.8455V18.8359V18.8263V18.8166V18.807V18.7973V18.7875V18.7778C20 18.5088 19.873 18.086 19.4608 17.7196C19.058 17.3615 18.3132 17 17 17C16.4477 17 16 16.5523 16 16Z" fill="#7C7B7B"/>
</svg>
